<svg width="5" height="22" viewBox="0 0 5 22" fill="none" xmlns="http://www.w3.org/2000/svg">
<path opacity="0.75" d="M2.5 4.88889C2.99445 4.88889 3.4778 4.74553 3.88892 4.47693C4.30005 4.20833 4.62048 3.82656 4.8097 3.37989C4.99892 2.93323 5.04843 2.44173 4.95196 1.96756C4.8555 1.49338 4.6174 1.05782 4.26777 0.715962C3.91813 0.3741 3.47268 0.14129 2.98773 0.0469704C2.50277 -0.047349 2.00011 0.00105913 1.54329 0.186073C1.08648 0.371088 0.696031 0.684398 0.421327 1.08638C0.146624 1.48837 1.34724e-06 1.96098 1.34724e-06 2.44445C1.34724e-06 3.09275 0.263394 3.71451 0.732234 4.17293C1.20108 4.63135 1.83696 4.88889 2.5 4.88889ZM2.5 17.1111C2.00555 17.1111 1.5222 17.2545 1.11108 17.5231C0.699953 17.7917 0.379521 18.1734 0.190302 18.6201C0.0010832 19.0668 -0.0484251 19.5583 0.0480379 20.0324C0.144501 20.5066 0.382603 20.9422 0.732234 21.284C1.08187 21.6259 1.52732 21.8587 2.01227 21.953C2.49723 22.0473 2.99989 21.9989 3.45671 21.8139C3.91352 21.6289 4.30397 21.3156 4.57867 20.9136C4.85338 20.5116 5 20.039 5 19.5556C5 18.9072 4.73661 18.2855 4.26777 17.8271C3.79892 17.3687 3.16304 17.1111 2.5 17.1111ZM2.5 8.55556C2.00555 8.55556 1.5222 8.69892 1.11108 8.96752C0.699953 9.23612 0.379521 9.61789 0.190302 10.0646C0.0010832 10.5112 -0.0484251 11.0027 0.0480379 11.4769C0.144501 11.9511 0.382603 12.3866 0.732234 12.7285C1.08187 13.0703 1.52732 13.3032 2.01227 13.3975C2.49723 13.4918 2.99989 13.4434 3.45671 13.2584C3.91352 13.0734 4.30397 12.76 4.57867 12.3581C4.85338 11.9561 5 11.4835 5 11C5 10.3517 4.73661 9.72994 4.26777 9.27152C3.79892 8.8131 3.16304 8.55556 2.5 8.55556Z" fill="#595B5C"/>
</svg>
