<svg width="22" height="22" viewBox="0 0 22 22" fill="none" xmlns="http://www.w3.org/2000/svg">
<path d="M9.74609 0.90332C12.0711 0.839705 14.3323 1.67021 16.0645 3.22363C17.7965 4.77709 18.8679 6.9361 19.0586 9.25586C19.2467 11.5456 18.5608 13.8193 17.1436 15.624L20.79 19.2432L20.791 19.2441L20.8613 19.3242C21.0153 19.518 21.0996 19.7592 21.0996 20.0088C21.0996 20.2941 20.9891 20.5683 20.791 20.7734L20.79 20.7744C20.6879 20.8775 20.5666 20.9598 20.4326 21.0156C20.2987 21.0715 20.1549 21.0996 20.0098 21.0996C19.8647 21.0996 19.7208 21.0714 19.5869 21.0156C19.4529 20.9598 19.3307 20.8775 19.2285 20.7744V20.7734L15.6133 17.1553C13.8098 18.5739 11.5375 19.2606 9.24902 19.0723C6.9309 18.8814 4.77395 17.8087 3.22168 16.0752C1.66962 14.3418 0.839807 12.0795 0.90332 9.75293C0.966942 7.42612 1.91879 5.21137 3.56348 3.56543C5.20816 1.91952 7.42101 0.966991 9.74609 0.90332ZM12.6543 3.64648C11.3943 3.12421 10.0075 2.98764 8.66992 3.25391C7.33242 3.52022 6.10397 4.17755 5.13965 5.14258C4.17529 6.10767 3.51806 7.33715 3.25195 8.67578C2.98589 10.0144 3.12269 11.4021 3.64453 12.6631C4.16647 13.9241 5.05056 15.0024 6.18457 15.7607C7.31854 16.519 8.65185 16.9238 10.0156 16.9238C11.8444 16.9238 13.5984 16.1965 14.8916 14.9023C16.1848 13.6081 16.9111 11.8528 16.9111 10.0225C16.9111 8.65754 16.5067 7.32336 15.749 6.18848C14.9913 5.05359 13.9143 4.16881 12.6543 3.64648Z" fill="#00426C" stroke="#989899" stroke-width="0.2" stroke-linejoin="round"/>
</svg>
