<svg width="22" height="22" viewBox="0 0 22 22" fill="none" xmlns="http://www.w3.org/2000/svg">
<path d="M10.1807 0.902344C12.3514 0.946714 14.4405 1.76719 16.0645 3.22363L16.3809 3.52148C17.9267 5.04718 18.8798 7.08085 19.0586 9.25586L19.084 9.69043C19.1572 11.8318 18.4711 13.9336 17.1436 15.624L20.79 19.2432L20.791 19.2441L20.8613 19.3242C21.0153 19.518 21.0996 19.7592 21.0996 20.0088C21.0996 20.2941 20.9891 20.5683 20.791 20.7734L20.79 20.7744C20.7133 20.8518 20.6259 20.9173 20.5303 20.9688L20.4326 21.0156C20.2987 21.0715 20.1549 21.0996 20.0098 21.0996C19.9007 21.0996 19.7924 21.0835 19.6885 21.0518L19.5869 21.0156C19.4529 20.9598 19.3307 20.8775 19.2285 20.7744V20.7734L15.6133 17.1553C13.924 18.4841 11.8236 19.171 9.68359 19.0977L9.24902 19.0723C7.07568 18.8933 5.04404 17.9396 3.51953 16.3926L3.22168 16.0752C1.66962 14.3418 0.839807 12.0795 0.90332 9.75293L0.925781 9.31738C1.08889 7.15101 2.02166 5.10842 3.56348 3.56543L3.87891 3.26562C5.48566 1.8045 7.56631 0.963012 9.74609 0.90332L10.1807 0.902344ZM12.6543 3.64648C11.4731 3.15688 10.1809 3.00657 8.92188 3.20898L8.66992 3.25391C7.41605 3.50357 6.25768 4.09654 5.32324 4.96484L5.13965 5.14258C4.23542 6.04749 3.60153 7.18491 3.30664 8.42676L3.25195 8.67578C2.98589 10.0144 3.12269 11.4021 3.64453 12.6631L3.74707 12.8975C4.27839 14.0577 5.12143 15.0498 6.18457 15.7607L6.39941 15.8984C7.48528 16.5677 8.73701 16.9238 10.0156 16.9238C11.8444 16.9238 13.5984 16.1965 14.8916 14.9023L15.127 14.6543C16.2725 13.3883 16.9111 11.7385 16.9111 10.0225C16.9111 8.74275 16.5556 7.49008 15.8867 6.40332L15.749 6.18848C15.0387 5.12459 14.0479 4.28074 12.8887 3.74902L12.6543 3.64648Z" fill="#CCECEC" fill-opacity="0.933333" stroke="#989899" stroke-width="0.2" stroke-linejoin="round"/>
</svg>
