<svg width="30" height="30" viewBox="0 0 30 30" fill="none" xmlns="http://www.w3.org/2000/svg">
<rect width="30" height="30" rx="7" fill="#00426C"/>
<path d="M14.3447 6.90137C16.086 6.93691 17.7617 7.59542 19.0645 8.76367L19.3193 9.00293C20.5592 10.2268 21.3234 11.8579 21.4668 13.6025C21.6173 15.4333 21.0706 17.2508 19.9414 18.6963L22.8457 21.5801L22.8477 21.582L22.9043 21.6475C23.0302 21.806 23.0996 22.0029 23.0996 22.207C23.0996 22.4404 23.0097 22.6652 22.8477 22.833L22.8467 22.834C22.784 22.8972 22.7119 22.9501 22.6338 22.9922L22.5537 23.0312C22.4442 23.0769 22.3266 23.0996 22.208 23.0996C22.1189 23.0996 22.0302 23.0865 21.9453 23.0605L21.8613 23.0312C21.7792 22.997 21.7031 22.9501 21.6348 22.8936L21.5693 22.834L18.6885 19.9512C17.3358 21.0097 15.6569 21.5567 13.9463 21.498L13.5977 21.4775C11.8543 21.334 10.2249 20.5689 9.00195 19.3281L8.7627 19.0742C7.51756 17.6837 6.85143 15.8683 6.90234 14.002L6.9209 13.6523C7.05176 11.9145 7.80028 10.2759 9.03711 9.03809L9.28906 8.79785C10.578 7.62553 12.2473 6.95025 13.9961 6.90234L14.3447 6.90137ZM16.3154 9.13574C15.374 8.74559 14.3442 8.62581 13.3408 8.78711L13.1396 8.82227C12.1403 9.02126 11.2174 9.49454 10.4727 10.1865L10.3262 10.3281C9.55748 11.0974 9.03341 12.0775 8.82129 13.1445C8.60919 14.2116 8.71775 15.3181 9.13379 16.3232L9.21582 16.5098C9.6393 17.4345 10.3109 18.2254 11.1582 18.792L11.3301 18.9014C12.1957 19.4349 13.1937 19.7188 14.2129 19.7188C15.6705 19.7186 17.0689 19.1389 18.0996 18.1074C19.1302 17.0758 19.709 15.6766 19.709 14.2178C19.709 13.1978 19.4257 12.1992 18.8926 11.333L18.7832 11.1621C18.217 10.3141 17.4269 9.64063 16.5029 9.2168L16.3154 9.13574Z" fill="#F1F1F1" stroke="#989899" stroke-width="0.2" stroke-linejoin="round"/>
</svg>
