<svg width="40" height="32" viewBox="0 0 40 32" fill="none" xmlns="http://www.w3.org/2000/svg">
<path d="M0 16.8421V25.2632C0 25.7098 0.191558 26.1382 0.532533 26.4541C0.873508 26.7699 1.33597 26.9474 1.81818 26.9474H3.63636C3.63636 28.2874 4.21104 29.5726 5.23396 30.5201C6.25689 31.4677 7.64427 32 9.09091 32C10.5375 32 11.9249 31.4677 12.9479 30.5201C13.9708 29.5726 14.5455 28.2874 14.5455 26.9474H25.4545C25.4545 28.2874 26.0292 29.5726 27.0521 30.5201C28.0751 31.4677 29.4625 32 30.9091 32C32.3557 32 33.7431 31.4677 34.766 30.5201C35.789 29.5726 36.3636 28.2874 36.3636 26.9474H38.1818C38.664 26.9474 39.1265 26.7699 39.4675 26.4541C39.8084 26.1382 40 25.7098 40 25.2632V5.05263C40 3.71259 39.4253 2.42743 38.4024 1.47988C37.3795 0.532329 35.9921 0 34.5455 0H18.1818C16.7352 0 15.3478 0.532329 14.3249 1.47988C13.3019 2.42743 12.7273 3.71259 12.7273 5.05263V8.42105H9.09091C8.24412 8.42105 7.40896 8.60368 6.65156 8.95447C5.89417 9.30527 5.23535 9.81459 4.72727 10.4421L0.363636 15.8316C0.310457 15.9048 0.267681 15.984 0.236364 16.0674L0.127273 16.2526C0.0470292 16.4405 0.00391826 16.6401 0 16.8421ZM29.0909 26.9474C29.0909 26.6143 29.1975 26.2886 29.3973 26.0117C29.5971 25.7347 29.8811 25.5188 30.2133 25.3914C30.5455 25.2639 30.9111 25.2305 31.2638 25.2955C31.6165 25.3605 31.9405 25.5209 32.1947 25.7565C32.449 25.992 32.6222 26.2921 32.6923 26.6188C32.7625 26.9455 32.7265 27.2841 32.5889 27.5919C32.4513 27.8996 32.2182 28.1627 31.9192 28.3477C31.6202 28.5328 31.2687 28.6316 30.9091 28.6316C30.4269 28.6316 29.9644 28.4541 29.6234 28.1383C29.2825 27.8224 29.0909 27.394 29.0909 26.9474ZM16.3636 5.05263C16.3636 4.60595 16.5552 4.17757 16.8962 3.86172C17.2371 3.54586 17.6996 3.36842 18.1818 3.36842H34.5455C35.0277 3.36842 35.4901 3.54586 35.8311 3.86172C36.1721 4.17757 36.3636 4.60595 36.3636 5.05263V23.5789H34.9455C34.4342 23.0579 33.8111 22.6416 33.116 22.3568C32.4209 22.0719 31.6692 21.9247 30.9091 21.9247C30.149 21.9247 29.3973 22.0719 28.7022 22.3568C28.0071 22.6416 27.384 23.0579 26.8727 23.5789H16.3636V5.05263ZM12.7273 15.1579H5.45455L7.63636 12.4632C7.80572 12.254 8.02533 12.0842 8.27779 11.9673C8.53026 11.8503 8.80865 11.7895 9.09091 11.7895H12.7273V15.1579ZM7.27273 26.9474C7.27273 26.6143 7.37936 26.2886 7.57915 26.0117C7.77893 25.7347 8.06289 25.5188 8.39512 25.3914C8.72735 25.2639 9.09293 25.2305 9.44562 25.2955C9.79831 25.3605 10.1223 25.5209 10.3766 25.7565C10.6308 25.992 10.804 26.2921 10.8742 26.6188C10.9443 26.9455 10.9083 27.2841 10.7707 27.5919C10.6331 27.8996 10.4 28.1627 10.101 28.3477C9.80204 28.5328 9.45051 28.6316 9.09091 28.6316C8.6087 28.6316 8.14624 28.4541 7.80526 28.1383C7.46429 27.8224 7.27273 27.394 7.27273 26.9474ZM3.63636 18.5263H12.7273V23.2084C11.6542 22.3201 10.2457 21.8606 8.80853 21.93C7.37137 21.9994 6.02204 22.5921 5.05455 23.5789H3.63636V18.5263Z" fill="black"/>
</svg>
